<svg width="16" height="16" viewBox="0 0 16 16" fill="none" xmlns="http://www.w3.org/2000/svg">
<path d="M0.331035 1.97345C0.783205 2.42562 1.23538 2.87779 1.68755 3.32996C2.77183 4.41425 3.85612 5.49854 4.94502 6.58744C6.26462 7.90704 7.58422 9.22663 8.90382 10.5462C10.0342 11.6767 11.1647 12.8071 12.2997 13.9421C12.8534 14.4958 13.3978 15.0679 13.9654 15.6078C13.9746 15.617 13.9792 15.6216 13.9884 15.6308C14.4175 16.0599 15.1973 16.0876 15.6218 15.6308C16.0463 15.1694 16.0786 14.4543 15.6218 13.9975C15.1696 13.5453 14.7174 13.0932 14.2653 12.641C13.181 11.5567 12.0967 10.4724 11.0078 9.38351C9.6882 8.06391 8.3686 6.74431 7.049 5.42471C5.91857 4.29429 4.78814 3.16386 3.6531 2.02882C3.09943 1.47514 2.55498 0.903007 1.98745 0.36317C1.97823 0.353942 1.97361 0.349328 1.96438 0.3401C1.53528 -0.0890001 0.755521 -0.116684 0.331035 0.3401C-0.0888381 0.801499 -0.121136 1.51667 0.331035 1.97345Z" fill="#3C5A6D"/>
<path d="M1.96564 15.6213C2.41781 15.1692 2.86998 14.717 3.32215 14.2648C4.40644 13.1805 5.49072 12.0962 6.57962 11.0073C7.89922 9.68775 9.21882 8.36815 10.5384 7.04855C11.6688 5.91812 12.7993 4.7877 13.9343 3.65266C14.488 3.09898 15.0601 2.55453 15.6 1.98701C15.6092 1.97778 15.6138 1.97317 15.623 1.96394C16.0521 1.53484 16.0798 0.755074 15.623 0.330588C15.1616 -0.093899 14.4465 -0.126197 13.9897 0.330588C13.5375 0.782758 13.0853 1.23493 12.6332 1.6871C11.5489 2.77139 10.4646 3.85567 9.3757 4.94457C8.0561 6.26417 6.7365 7.58377 5.4169 8.90337C4.28647 10.0338 3.15605 11.1642 2.02101 12.2993C1.46733 12.8529 0.895194 13.3974 0.355358 13.9649C0.34613 13.9741 0.341516 13.9788 0.332288 13.988C-0.0968126 14.4171 -0.124497 15.1968 0.332288 15.6213C0.793687 16.0458 1.50885 16.0781 1.96564 15.6213Z" fill="#3C5A6D"/>
</svg>
