<svg xmlns="http://www.w3.org/2000/svg" width="165" height="45" fill="none" viewBox="0 0 165 45"><path fill="#012635" fill-rule="evenodd" d="M18.3549 0.167585C11.1008 0.811953 4.37896 5.77302 1.51257 12.5983C0.248671 15.6079 0.0108821 16.8543 0.000576023 20.5257C-0.00879311 23.8579 0.0882718 24.5815 0.876591 27.0627C2.15342 31.0814 5.32243 35.2925 8.88364 37.703C14.2175 41.3135 21.1765 42.239 27.2863 40.1505C28.1455 39.8567 29.6136 39.2956 29.7939 39.2224C30.1248 39.0877 29.6825 38.7771 29.4191 38.6621C29.2845 38.6034 27.3007 36.2821 26.6934 35.3945C26.1556 34.6084 24.6676 32.741 24.4165 32.5371C24.2316 32.3869 23.8366 32.4007 22.9458 32.5884C19.1947 33.3785 14.9153 32.0901 12.1471 29.3373C4.9814 22.2115 8.72586 10.3848 18.7173 8.58564C22.2596 7.94781 26.2653 9.17043 29.0091 11.7274C32.9784 15.4262 33.9914 21.2535 31.5159 26.1459C31.0648 27.0372 31.4098 28.1256 32.2919 28.5943L34.4157 29.7228L36.2595 30.7024C37.2824 31.2459 38.5521 30.8372 39.0659 29.7992C43.5515 20.7367 40.9654 10.1095 32.7995 4.04817C30.9903 2.70527 28.4674 1.46473 26.2602 0.832498C24.8054 0.415807 21.2756 -0.0670018 20.2287 0.00770746C20.0226 0.0222758 19.1794 0.0941833 18.3549 0.167585Z" clip-rule="evenodd"/><path fill="#085BA7" d="M36.0506 34.153L24 32.25L30.8527 41.4907C32.2859 43.4234 35.0205 43.816 36.9396 42.3645C38.8878 40.8909 39.2313 38.098 37.6981 36.1964L36.0506 34.153Z"/><path fill="#085BA7" d="M25.6944 24.2042C25.1705 24.2042 24.6465 24.0295 24.1808 23.6802L20.484 20.7985L16.8164 23.6802C15.7685 24.5244 14.2257 24.3206 13.3816 23.2727C12.5374 22.2248 12.7412 20.682 13.7891 19.8379L18.9704 15.7918C19.8437 15.0932 21.0953 15.0932 21.9686 15.7918L27.179 19.8379C28.256 20.6529 28.4306 22.1957 27.6156 23.2727C27.1499 23.884 26.4222 24.2042 25.6944 24.2042Z"/><path fill="#012635" d="M45.7594 13.6038C45.7594 12.502 45.9895 11.4461 46.4497 10.436C46.9406 9.42602 47.6156 8.55373 48.4747 7.81917C49.3645 7.05401 50.423 6.44188 51.6502 5.98278C52.9082 5.52368 54.3195 5.29413 55.8843 5.29413C57.3263 5.29413 58.6302 5.52368 59.7961 5.98278C60.9927 6.44188 62.0205 7.08462 62.8796 7.911C63.7387 8.73737 64.3983 9.71679 64.8586 10.8492C65.3188 11.9511 65.5489 13.16 65.5489 14.4761H60.2564C60.2564 13.1906 59.8728 12.1806 59.1058 11.4461C58.3388 10.7115 57.2649 10.3442 55.8843 10.3442C54.5036 10.3442 53.4298 10.6809 52.6627 11.3542C51.8957 12.0276 51.5122 12.7621 51.5122 13.5579C51.5122 14.4149 51.8803 15.0729 52.6167 15.532C53.3531 15.9911 54.2735 16.4043 55.378 16.7716C56.4826 17.1389 57.6791 17.5215 58.9677 17.9194C60.287 18.3172 61.499 18.8529 62.6035 19.5262C63.708 20.1996 64.6285 21.0871 65.3648 22.189C66.1012 23.2602 66.4693 24.6681 66.4693 26.4127C66.4693 27.4533 66.2085 28.4633 65.687 29.4428C65.1961 30.4222 64.4904 31.3098 63.57 32.1055C62.6495 32.8707 61.5296 33.4981 60.2103 33.9878C58.9217 34.4469 57.4797 34.6765 55.8843 34.6765C54.2582 34.6765 52.8008 34.4469 51.5122 33.9878C50.2542 33.5287 49.1804 32.886 48.2906 32.0596C47.4009 31.2026 46.7105 30.2079 46.2196 29.0755C45.7594 27.9124 45.5293 26.6422 45.5293 25.2649H51.0519C51.0519 26.5504 51.4815 27.6064 52.3406 28.4327C53.1996 29.2285 54.3809 29.6264 55.8843 29.6264C57.5104 29.6264 58.7223 29.2897 59.52 28.6164C60.3177 27.9124 60.7166 27.1013 60.7166 26.1831C60.7166 25.2956 60.3484 24.6069 59.6121 24.1172C58.8757 23.6275 57.9553 23.199 56.8507 22.8317C55.7462 22.4338 54.5343 22.0513 53.215 21.684C51.9264 21.3167 50.7298 20.8117 49.6253 20.1689C48.5207 19.5262 47.6003 18.6998 46.8639 17.6898C46.1276 16.6492 45.7594 15.2872 45.7594 13.6038Z"/><path fill="#012635" d="M79.334 13.0988C80.4692 13.0988 81.5277 13.3131 82.5095 13.7416C83.522 14.1394 84.381 14.7363 85.0867 15.532C85.7924 16.2972 86.3446 17.2307 86.7435 18.3325C87.173 19.4344 87.3878 20.674 87.3878 22.0513V34.4469H82.0953V22.7399C82.0953 21.3626 81.6811 20.2608 80.8527 19.4344C80.055 18.5774 79.0118 18.1489 77.7232 18.1489C76.4346 18.1489 75.3761 18.5774 74.5477 19.4344C73.7499 20.2608 73.3511 21.3626 73.3511 22.7399V34.4469H68.0585V5.52368H73.3511V15.3943C73.7499 14.9658 74.2255 14.5832 74.7778 14.2466C75.2687 13.9711 75.8823 13.7109 76.6187 13.4661C77.3857 13.2212 78.2908 13.0988 79.334 13.0988Z"/><path fill="#012635" d="M108.806 28.0195C108.53 28.8153 108.1 29.6111 107.517 30.4069C106.965 31.2026 106.275 31.9219 105.446 32.5646C104.649 33.1768 103.728 33.6818 102.685 34.0797C101.673 34.4775 100.568 34.6765 99.3715 34.6765C97.9295 34.6765 96.5642 34.401 95.2756 33.8501C94.0176 33.2686 92.8978 32.4881 91.916 31.5087C90.9648 30.5293 90.1978 29.3968 89.6149 28.1114C89.0626 26.7953 88.7865 25.3874 88.7865 23.8876C88.7865 22.3879 89.0626 20.9953 89.6149 19.7098C90.1978 18.3938 90.9648 17.246 91.916 16.2666C92.8978 15.2872 94.0176 14.522 95.2756 13.9711C96.5642 13.3896 97.9295 13.0988 99.3715 13.0988C100.752 13.0988 102.056 13.359 103.283 13.8793C104.511 14.3996 105.585 15.1342 106.505 16.083C107.425 17.0318 108.146 18.1795 108.668 19.5262C109.22 20.8423 109.496 22.2961 109.496 23.8876C109.496 24.1325 109.481 24.3774 109.45 24.6222C109.42 24.8365 109.389 25.0507 109.358 25.2649C109.328 25.5098 109.297 25.7393 109.266 25.9536H94.5392C94.7847 26.9942 95.3063 27.8665 96.104 28.5705C96.9017 29.2744 97.9909 29.6264 99.3715 29.6264C100.077 29.6264 100.66 29.5499 101.12 29.3968C101.611 29.2438 102.025 29.0602 102.363 28.8459C102.731 28.6011 103.038 28.3256 103.283 28.0195H108.806ZM99.3715 18.1489C97.9909 18.1489 96.8557 18.5468 95.9659 19.3426C95.1068 20.1383 94.5546 21.1178 94.3091 22.2808H104.434C104.189 21.1178 103.621 20.1383 102.731 19.3426C101.872 18.5468 100.752 18.1489 99.3715 18.1489Z"/><path fill="#012635" d="M116.389 34.4469H111.096V5.52368H116.389V34.4469Z"/><path fill="#012635" d="M121.433 8.27827H126.036V13.3284H130.638V18.1489H126.036V26.8718C126.036 27.79 126.296 28.5246 126.818 29.0755C127.37 29.5958 128.107 29.8559 129.027 29.8559C129.272 29.8559 129.472 29.8559 129.625 29.8559C129.779 29.8253 129.917 29.7947 130.04 29.7641C130.162 29.7335 130.285 29.6876 130.408 29.6264V34.2174C130.193 34.3092 129.947 34.3857 129.671 34.4469C129.15 34.6 128.551 34.6765 127.876 34.6765C126.833 34.6765 125.867 34.5081 124.977 34.1715C124.118 33.8042 123.366 33.2839 122.722 32.6105C122.108 31.9372 121.617 31.1414 121.249 30.2232C120.912 29.305 120.743 28.2644 120.743 27.1013V18.1489H117.521V13.7875H118.902C120.59 13.7875 121.433 12.9458 121.433 11.2624V8.27827Z"/><path fill="#012635" d="M151.116 28.0195C150.84 28.8153 150.41 29.6111 149.827 30.4069C149.275 31.2026 148.585 31.9219 147.756 32.5646C146.958 33.1768 146.038 33.6818 144.995 34.0797C143.982 34.4775 142.878 34.6765 141.681 34.6765C140.239 34.6765 138.874 34.401 137.585 33.8501C136.327 33.2686 135.208 32.4881 134.226 31.5087C133.275 30.5293 132.508 29.3968 131.925 28.1114C131.372 26.7953 131.096 25.3874 131.096 23.8876C131.096 22.3879 131.372 20.9953 131.925 19.7098C132.508 18.3938 133.275 17.246 134.226 16.2666C135.208 15.2872 136.327 14.522 137.585 13.9711C138.874 13.3896 140.239 13.0988 141.681 13.0988C143.062 13.0988 144.366 13.359 145.593 13.8793C146.82 14.3996 147.894 15.1342 148.815 16.083C149.735 17.0318 150.456 18.1795 150.978 19.5262C151.53 20.8423 151.806 22.2961 151.806 23.8876C151.806 24.1325 151.791 24.3774 151.76 24.6222C151.729 24.8365 151.699 25.0507 151.668 25.2649C151.637 25.5098 151.607 25.7393 151.576 25.9536H136.849C137.094 26.9942 137.616 27.8665 138.414 28.5705C139.211 29.2744 140.301 29.6264 141.681 29.6264C142.387 29.6264 142.97 29.5499 143.43 29.3968C143.921 29.2438 144.335 29.0602 144.673 28.8459C145.041 28.6011 145.348 28.3256 145.593 28.0195H151.116ZM141.681 18.1489C140.301 18.1489 139.165 18.5468 138.276 19.3426C137.417 20.1383 136.864 21.1178 136.619 22.2808H146.744C146.498 21.1178 145.931 20.1383 145.041 19.3426C144.182 18.5468 143.062 18.1489 141.681 18.1489Z"/><path fill="#012635" d="M163.301 13.0988C163.546 13.0988 163.761 13.1141 163.945 13.1447C164.129 13.1753 164.298 13.2059 164.451 13.2365C164.605 13.2672 164.758 13.2978 164.912 13.3284V18.8376C164.758 18.807 164.589 18.7763 164.405 18.7457C164.252 18.7151 164.053 18.6845 163.807 18.6539C163.592 18.6233 163.347 18.608 163.071 18.608C161.782 18.608 160.724 19.0365 159.895 19.8935C159.098 20.7199 158.699 21.8217 158.699 23.199V34.4469H153.406V13.3284H157.318L158.238 15.6239C158.607 15.1648 159.052 14.7516 159.573 14.3843C160.003 14.0476 160.524 13.7569 161.138 13.512C161.782 13.2365 162.503 13.0988 163.301 13.0988Z"/></svg>