<svg width="26" height="21" viewBox="0 0 26 21" fill="none" xmlns="http://www.w3.org/2000/svg">
<path d="M24.2669 3H1.73307C0.776264 3 0 2.40225 0 1.5C0 0.59775 0.776264 0 1.73307 0H24.2669C25.2237 0 26 0.59775 26 1.5C26 2.40225 25.2237 3 24.2669 3Z" fill="#3C5A6D"/>
<path d="M1.73307 9H24.2669C25.2237 9 26 9.59775 26 10.5C26 11.4023 25.2233 12 24.2669 12H1.73307C0.776264 12 0 11.4023 0 10.5C0 9.59775 0.776264 9 1.73307 9Z" fill="#3C5A6D"/>
<path d="M11.6549 18H24.3447C25.2587 18 26 18.5981 26 19.5C26 20.4023 25.2584 21 24.3447 21H11.6549C10.7413 21 10 20.4023 10 19.5C10 18.5981 10.7413 18 11.6549 18Z" fill="#3C5A6D"/>
</svg>
